<svg width="16" height="16" viewBox="0 0 16 16" fill="none" xmlns="http://www.w3.org/2000/svg">
<path d="M11.161 10.2646L10.7562 10.6908C10.7562 10.6908 9.79389 11.704 7.16722 8.93858C4.54055 6.17319 5.50285 5.16007 5.50285 5.16007L5.75779 4.89166C6.38584 4.23044 6.44505 3.16886 5.8971 2.39387L4.77623 0.808547C4.09803 -0.150667 2.78752 -0.277379 2.01018 0.541015L0.614977 2.0099C0.229537 2.4157 -0.028754 2.94173 0.00256673 3.52528C0.0826978 5.01818 0.720635 8.23026 4.28032 11.9779C8.05524 15.9522 11.5972 16.1102 13.0456 15.9672C13.5037 15.922 13.9022 15.6749 14.2232 15.3369L15.4859 14.0075C16.3383 13.1101 16.098 11.5717 15.0074 10.944L13.3092 9.9665C12.5931 9.55434 11.7207 9.67542 11.161 10.2646Z" fill="white"/>
</svg>
