<svg width="514" height="514" viewBox="0 0 514 514" fill="none" xmlns="http://www.w3.org/2000/svg">
<path d="M496.203 465.816H21.5312" stroke="#263238" stroke-miterlimit="10" stroke-linecap="round" stroke-linejoin="round"/>
<path d="M39.2298 400.778C41.4441 401.744 46.8576 401.623 46.8617 401.623C46.9182 401.622 45.698 398.078 45.5952 397.864C44.4079 395.38 40.6505 391.276 37.5943 391.689C35.3923 391.987 34.168 394.19 34.6645 396.264C35.1733 398.38 37.3455 399.953 39.2298 400.778Z" fill="#09BA9A"/>
<path d="M41.0959 416.46C43.3925 416.795 48.2241 415.394 48.6075 415.281C49.3703 417.985 50.3726 420.699 51.5383 423.389C52.2024 424.928 52.92 426.457 53.6591 427.981C53.2181 427.336 52.8192 426.762 52.7555 426.687C50.9524 424.603 46.2462 421.639 43.4079 422.845C41.3622 423.713 40.7639 426.162 41.7898 428.03C42.8384 429.938 45.3498 430.881 47.3852 431.178C49.4515 431.479 53.5943 430.366 54.6871 430.058C54.976 430.64 55.2587 431.224 55.5506 431.805C56.9497 434.59 58.3581 437.364 59.6554 440.127C60.1129 441.101 60.5282 442.076 60.9476 443.051C60.5559 442.477 60.2208 441.998 60.1622 441.93C58.3601 439.848 53.654 436.882 50.8146 438.089C48.7689 438.957 48.1696 441.406 49.1965 443.274C50.2461 445.182 52.7565 446.126 54.792 446.423C56.7637 446.711 60.5971 445.719 61.8965 445.358C62.2953 446.369 62.6973 447.381 63.0375 448.378C63.2555 449.065 63.5125 449.71 63.6913 450.411C63.8846 451.102 64.0748 451.786 64.2639 452.464C64.5806 453.782 64.9147 455.14 65.1902 456.433C65.3896 457.332 65.5623 458.191 65.7391 459.057C65.295 458.082 64.3842 456.193 64.2896 456.044C62.8247 453.712 58.6213 450.068 55.6318 450.83C53.4782 451.379 52.516 453.708 53.2479 455.711C53.9953 457.755 56.334 459.069 58.3015 459.671C60.4675 460.333 65.2632 459.728 65.8615 459.648C66.1493 461.081 66.4145 462.477 66.6448 463.799C66.7682 464.498 66.8751 465.156 66.984 465.816H68.891C68.7501 465.054 68.6031 464.276 68.4407 463.463C68.1549 462.007 67.8208 460.457 67.4621 458.868C67.8229 458.725 69.8676 457.897 71.6799 456.885C73.2589 458.594 77.3041 460.595 77.8274 460.85C77.2774 462.204 76.7284 463.514 76.1908 464.744C76.0294 465.116 75.8731 465.462 75.7148 465.816H77.7235C77.7739 465.695 77.8233 465.58 77.8736 465.454C78.438 464.082 79.0147 462.603 79.5925 461.081C80.1722 461.202 84.9195 462.167 87.1318 461.667C89.1385 461.214 91.5687 460.078 92.4671 458.095C93.3461 456.153 92.5596 453.758 90.4522 453.05C87.5286 452.067 83.0661 455.389 81.4305 457.605C81.3339 457.736 80.4457 459.272 79.9019 460.249C80.1342 459.626 80.3665 459.023 80.5989 458.378C81.0656 457.107 81.4943 455.824 81.9599 454.445C82.1614 453.772 82.365 453.09 82.5706 452.404C82.7885 451.726 82.9335 450.983 83.1195 450.267C83.5174 448.598 83.8391 446.886 84.1249 445.156C85.2393 445.561 89.2186 446.946 91.2808 446.801C93.3327 446.657 95.9068 445.904 97.0952 444.079C98.2589 442.292 97.8436 439.805 95.8688 438.787C93.1271 437.373 88.2122 439.979 86.2611 441.922C86.1398 442.042 84.8949 443.595 84.2287 444.46C84.3922 443.419 84.5608 442.38 84.6924 441.32C85.0717 438.261 85.3606 435.154 85.6628 432.055C85.7543 431.107 85.8581 430.162 85.9578 429.215C86.3526 429.364 91.0475 431.112 93.3563 430.949C95.4082 430.805 97.9823 430.052 99.1707 428.226C100.334 426.44 99.9191 423.953 97.9443 422.935C95.2026 421.522 90.2888 424.127 88.3366 426.07C88.1896 426.216 86.403 428.452 85.9763 429.042C86.1963 426.959 86.4348 424.884 86.7535 422.849C87.1883 420.04 87.7712 417.308 88.5309 414.703C88.7149 414.773 93.6061 416.618 95.9706 416.452C98.0224 416.309 100.598 415.554 101.785 413.729C102.949 411.943 102.533 409.456 100.559 408.438C97.8168 407.025 92.903 409.631 90.9508 411.574C90.7976 411.726 88.8763 414.132 88.5587 414.593C88.6049 414.438 88.6347 414.273 88.682 414.119C89.5291 411.348 90.6969 408.77 91.9089 406.411C92.61 405.039 93.3584 403.766 94.113 402.544C94.9888 402.98 99.0134 404.935 101.158 405.021C103.214 405.103 105.855 404.637 107.236 402.954C108.589 401.306 108.449 398.788 106.599 397.56C104.029 395.853 98.8582 397.904 96.7045 399.621C96.5873 399.715 95.5018 400.795 94.7226 401.594C95.0711 401.047 95.4216 400.477 95.766 399.96C97.0561 398.017 98.3576 396.317 99.5223 394.821C100.192 393.976 100.812 393.225 101.402 392.528C102.485 392.509 106.85 392.377 108.758 391.481C110.62 390.606 112.75 388.976 113.2 386.845C113.641 384.759 112.357 382.589 110.148 382.352C107.081 382.021 103.437 386.224 102.316 388.74C102.22 388.958 101.096 392.532 101.153 392.531C101.153 392.531 101.205 392.531 101.218 392.53C100.638 393.189 100.024 393.902 99.3671 394.695C98.1674 396.169 96.8248 397.845 95.4884 399.767C94.1469 401.685 92.7426 403.806 91.4658 406.174C90.1829 408.546 88.9544 411.107 88.0303 413.909C88.02 413.941 88.0128 413.975 88.0025 414.007C88.019 413.103 87.9789 410.575 87.9532 410.382C87.5985 407.651 85.3102 402.581 82.2766 402.02C80.0921 401.616 78.2406 403.328 78.0669 405.454C77.8891 407.624 79.4629 409.796 80.9967 411.166C82.7268 412.713 87.5296 414.208 87.9121 414.327C87.0557 417.002 86.3947 419.819 85.8828 422.705C85.5888 424.355 85.3431 426.026 85.119 427.705C85.1077 426.924 85.0923 426.225 85.0789 426.127C84.7253 423.396 82.4359 418.326 79.4023 417.765C77.2167 417.361 75.3663 419.073 75.1926 421.198C75.0148 423.368 76.5886 425.54 78.1224 426.91C79.6788 428.301 83.7487 429.659 84.8291 430.005C84.7499 430.649 84.6636 431.293 84.5865 431.938C84.2164 435.034 83.8607 438.124 83.4187 441.145C83.2634 442.21 83.0712 443.252 82.8831 444.296C82.8718 443.602 82.8574 443.017 82.8461 442.929C82.4914 440.196 80.2031 435.127 77.1705 434.567C74.985 434.164 73.1335 435.874 72.9598 438C72.782 440.169 74.3558 442.343 75.8906 443.713C77.3761 445.04 81.1211 446.328 82.404 446.743C82.1789 447.806 81.9558 448.872 81.6896 449.892C81.4922 450.584 81.3503 451.265 81.1139 451.949C80.8929 452.631 80.6749 453.308 80.4591 453.976C79.9954 455.25 79.5256 456.567 79.0425 457.798C78.7125 458.657 78.3825 459.469 78.0535 460.287C78.2201 459.23 78.5028 457.152 78.5069 456.975C78.549 455.146 77.8993 452.171 76.6061 450.08C76.6143 449.81 76.5989 449.541 76.5557 449.273C76.2175 447.168 74.2397 445.604 72.0922 446.177C69.112 446.971 67.2215 452.202 67.0807 454.953C67.0724 455.116 67.1783 456.886 67.2636 458.002C67.1136 457.353 66.9758 456.722 66.8124 456.057C66.4998 454.739 66.1483 453.433 65.7772 452.025C65.5736 451.352 65.368 450.672 65.1604 449.986C64.9692 449.301 64.6793 448.601 64.4397 447.901C63.8497 446.289 63.1743 444.684 62.4577 443.083C63.6122 442.806 67.6944 441.766 69.334 440.508C70.9665 439.256 72.6966 437.206 72.6812 435.029C72.6658 432.897 70.949 431.052 68.7388 431.292C65.6723 431.625 63.0108 436.51 62.4547 439.207C62.4197 439.376 62.2388 441.356 62.1596 442.445C61.7217 441.486 61.2889 440.526 60.814 439.57C59.4437 436.81 57.9716 434.059 56.5128 431.308C56.0656 430.465 55.6308 429.621 55.1918 428.777C55.6041 428.683 60.483 427.551 62.32 426.141C63.9514 424.889 65.6826 422.84 65.6672 420.663C65.6517 418.531 63.934 416.686 61.7248 416.926C58.6583 417.259 55.9968 422.144 55.4406 424.842C55.3985 425.045 55.1415 427.895 55.1117 428.623C54.1464 426.764 53.2006 424.903 52.3433 423.029C51.1569 420.445 50.1361 417.846 49.3322 415.254C49.5245 415.211 54.6223 414.051 56.5036 412.609C58.136 411.357 59.8672 409.308 59.8507 407.131C59.8353 404.998 58.1175 403.153 55.9084 403.394C52.8418 403.727 50.1814 408.612 49.6242 411.309C49.58 411.521 49.3055 414.588 49.2952 415.147C49.2479 414.993 49.1811 414.838 49.1359 414.684C48.3145 411.906 47.8663 409.111 47.5754 406.475C47.4027 404.943 47.3246 403.47 47.2804 402.034C48.2518 401.914 52.6866 401.324 54.5226 400.213C56.2826 399.147 58.2286 397.301 58.4516 395.136C58.6706 393.015 57.1656 390.992 54.9441 390.988C51.8591 390.982 48.6784 395.545 47.8283 398.165C47.782 398.308 47.4726 399.808 47.2629 400.904C47.2526 400.255 47.23 399.587 47.2331 398.966C47.2372 396.634 47.3842 394.497 47.5312 392.608C47.6227 391.534 47.7275 390.564 47.8344 389.658C48.7268 389.044 52.2939 386.525 53.3908 384.725C54.462 382.968 55.3378 380.434 54.538 378.409C53.7547 376.426 51.4869 375.324 49.5142 376.344C46.7736 377.761 46.0529 383.277 46.5063 385.993C46.5464 386.227 47.5805 389.828 47.6278 389.797C47.6278 389.797 47.671 389.768 47.6813 389.76C47.56 390.63 47.4418 391.565 47.3318 392.587C47.1436 394.478 46.9493 396.616 46.8949 398.958C46.8342 401.298 46.8332 403.842 47.0748 406.521C47.3133 409.206 47.7008 412.02 48.4759 414.867C48.4841 414.899 48.4985 414.932 48.5068 414.964C48.0215 414.201 46.5937 412.115 46.4652 411.967C44.6631 409.885 39.9569 406.919 37.1175 408.125C35.0729 408.993 34.4725 411.442 35.5005 413.311C36.5501 415.22 39.0605 416.163 41.0959 416.46Z" fill="#09BA9A"/>
<path d="M93.9887 401.97C94.037 402 94.9735 398.372 95.0064 398.137C95.3858 395.409 94.5161 389.914 91.7394 388.572C89.739 387.606 87.502 388.769 86.7732 390.772C86.0289 392.818 86.9726 395.328 88.0911 397.055C89.4018 399.083 93.9846 401.967 93.9887 401.97Z" fill="#09BA9A"/>
<path d="M185.236 435.792C186.258 436.238 188.757 436.181 188.759 436.181C188.785 436.18 188.222 434.546 188.174 434.446C187.626 433.299 185.892 431.405 184.481 431.595C183.464 431.733 182.9 432.75 183.129 433.707C183.363 434.685 184.366 435.412 185.236 435.792Z" fill="#09BA9A"/>
<path d="M186.101 443.032C187.161 443.186 189.392 442.54 189.568 442.487C189.921 443.735 190.384 444.988 190.921 446.23C191.228 446.941 191.559 447.647 191.9 448.35C191.696 448.052 191.512 447.787 191.483 447.753C190.651 446.792 188.478 445.422 187.168 445.979C186.223 446.38 185.948 447.51 186.422 448.373C186.906 449.254 188.066 449.688 189.004 449.826C189.957 449.965 191.87 449.452 192.375 449.309C192.509 449.577 192.639 449.848 192.774 450.115C193.419 451.401 194.069 452.681 194.668 453.957C194.88 454.406 195.071 454.856 195.265 455.306C195.084 455.042 194.928 454.82 194.902 454.789C194.07 453.828 191.898 452.459 190.587 453.016C189.643 453.417 189.366 454.547 189.841 455.409C190.325 456.29 191.484 456.726 192.423 456.863C193.333 456.995 195.102 456.538 195.703 456.371C195.887 456.838 196.072 457.305 196.229 457.765C196.33 458.082 196.448 458.38 196.531 458.704C196.621 459.023 196.708 459.338 196.795 459.652C196.941 460.259 197.096 460.886 197.223 461.484C197.314 461.898 197.395 462.295 197.476 462.695C197.27 462.244 196.851 461.373 196.807 461.304C196.13 460.227 194.19 458.546 192.811 458.897C191.817 459.151 191.373 460.226 191.711 461.151C192.056 462.094 193.136 462.701 194.043 462.978C195.044 463.284 197.257 463.005 197.533 462.968C197.666 463.629 197.788 464.274 197.895 464.884C197.952 465.207 198.001 465.51 198.052 465.816H198.932C198.867 465.464 198.799 465.105 198.724 464.729C198.592 464.057 198.437 463.341 198.272 462.608C198.438 462.543 199.382 462.16 200.219 461.692C200.947 462.482 202.814 463.405 203.056 463.522C202.802 464.147 202.549 464.753 202.3 465.32C202.225 465.492 202.153 465.652 202.08 465.816H203.008C203.031 465.76 203.054 465.707 203.077 465.649C203.339 465.016 203.604 464.333 203.871 463.63C204.138 463.687 206.33 464.131 207.351 463.9C208.277 463.691 209.399 463.166 209.814 462.252C210.22 461.355 209.856 460.25 208.884 459.923C207.534 459.47 205.474 461.003 204.719 462.025C204.675 462.086 204.265 462.794 204.014 463.246C204.121 462.958 204.229 462.679 204.336 462.382C204.552 461.795 204.749 461.203 204.964 460.567C205.056 460.255 205.151 459.942 205.245 459.624C205.346 459.311 205.413 458.968 205.499 458.638C205.683 457.867 205.831 457.078 205.963 456.279C206.477 456.466 208.314 457.105 209.266 457.038C210.213 456.971 211.401 456.623 211.95 455.78C212.488 454.956 212.296 453.808 211.384 453.338C210.118 452.685 207.849 453.889 206.949 454.785C206.892 454.841 206.319 455.557 206.01 455.957C206.086 455.476 206.163 454.997 206.224 454.508C206.399 453.096 206.533 451.662 206.672 450.231C206.715 449.793 206.763 449.357 206.808 448.92C206.99 448.989 209.157 449.796 210.223 449.721C211.17 449.654 212.358 449.307 212.907 448.464C213.445 447.64 213.253 446.491 212.341 446.022C211.075 445.369 208.808 446.572 207.906 447.469C207.838 447.537 207.014 448.568 206.816 448.841C206.918 447.879 207.028 446.922 207.175 445.982C207.376 444.686 207.645 443.425 207.995 442.222C208.08 442.254 210.338 443.106 211.43 443.03C212.377 442.963 213.565 442.616 214.114 441.773C214.651 440.948 214.459 439.8 213.548 439.33C212.282 438.677 210.014 439.881 209.113 440.778C209.042 440.849 208.156 441.959 208.009 442.172C208.03 442.101 208.044 442.024 208.065 441.953C208.456 440.674 208.996 439.484 209.555 438.395C209.879 437.762 210.224 437.174 210.573 436.609C210.977 436.811 212.834 437.713 213.824 437.752C214.773 437.79 215.992 437.574 216.63 436.798C217.254 436.038 217.19 434.876 216.336 434.309C215.149 433.521 212.762 434.468 211.768 435.259C211.714 435.303 211.213 435.801 210.853 436.17C211.015 435.918 211.176 435.655 211.335 435.417C211.931 434.52 212.532 433.735 213.07 433.044C213.378 432.653 213.665 432.307 213.937 431.985C214.437 431.977 216.452 431.915 217.333 431.502C218.192 431.098 219.175 430.346 219.383 429.362C219.586 428.399 218.994 427.397 217.974 427.287C216.559 427.135 214.877 429.075 214.36 430.236C214.316 430.336 213.796 431.986 213.823 431.986C213.823 431.986 213.848 431.986 213.853 431.986C213.585 432.291 213.301 432.619 212.999 432.985C212.445 433.666 211.826 434.439 211.208 435.326C210.589 436.211 209.94 437.191 209.351 438.284C208.759 439.379 208.192 440.561 207.765 441.854C207.76 441.868 207.757 441.885 207.752 441.899C207.759 441.482 207.74 440.315 207.729 440.226C207.566 438.965 206.509 436.625 205.109 436.366C204.1 436.179 203.246 436.969 203.166 437.951C203.084 438.953 203.81 439.955 204.519 440.588C205.317 441.301 207.535 441.992 207.711 442.046C207.315 443.282 207.011 444.581 206.774 445.914C206.638 446.675 206.525 447.446 206.422 448.221C206.416 447.861 206.409 447.538 206.403 447.493C206.24 446.231 205.183 443.891 203.783 443.632C202.774 443.445 201.92 444.236 201.84 445.217C201.757 446.218 202.484 447.221 203.192 447.853C203.91 448.495 205.788 449.122 206.288 449.281C206.251 449.578 206.212 449.875 206.176 450.174C206.005 451.603 205.841 453.028 205.637 454.423C205.565 454.915 205.477 455.396 205.39 455.878C205.385 455.558 205.378 455.288 205.373 455.247C205.21 453.985 204.153 451.646 202.753 451.387C201.744 451.201 200.89 451.99 200.809 452.972C200.726 453.973 201.453 454.976 202.161 455.609C202.847 456.221 204.575 456.816 205.168 457.008C205.065 457.499 204.962 457.991 204.838 458.461C204.747 458.781 204.682 459.095 204.572 459.411C204.47 459.726 204.37 460.038 204.27 460.347C204.056 460.935 203.839 461.542 203.616 462.111C203.464 462.508 203.312 462.882 203.16 463.26C203.237 462.772 203.367 461.813 203.369 461.731C203.389 460.887 203.089 459.514 202.491 458.549C202.496 458.424 202.488 458.3 202.468 458.177C202.312 457.205 201.399 456.483 200.408 456.748C199.032 457.114 198.16 459.529 198.095 460.798C198.091 460.873 198.14 461.69 198.179 462.205C198.109 461.906 198.046 461.614 197.971 461.308C197.827 460.699 197.665 460.097 197.493 459.447C197.4 459.137 197.304 458.823 197.209 458.506C197.12 458.19 196.987 457.866 196.877 457.543C196.604 456.799 196.293 456.059 195.962 455.32C196.494 455.192 198.378 454.712 199.135 454.131C199.889 453.554 200.687 452.608 200.68 451.603C200.673 450.618 199.88 449.767 198.861 449.878C197.445 450.032 196.217 452.286 195.96 453.531C195.944 453.609 195.86 454.523 195.823 455.026C195.62 454.583 195.421 454.14 195.202 453.699C194.57 452.424 193.889 451.154 193.217 449.885C193.01 449.496 192.81 449.107 192.607 448.717C192.797 448.674 195.05 448.15 195.898 447.501C196.651 446.923 197.45 445.977 197.443 444.972C197.436 443.988 196.643 443.136 195.623 443.247C194.208 443.4 192.979 445.656 192.722 446.9C192.703 446.994 192.585 448.31 192.57 448.646C192.124 447.788 191.688 446.928 191.292 446.064C190.745 444.871 190.274 443.672 189.903 442.475C189.991 442.454 192.344 441.92 193.213 441.254C193.966 440.676 194.765 439.73 194.758 438.725C194.751 437.741 193.958 436.889 192.938 437C191.523 437.154 190.294 439.408 190.037 440.653C190.017 440.751 189.89 442.167 189.885 442.425C189.864 442.354 189.833 442.283 189.811 442.211C189.432 440.928 189.225 439.639 189.09 438.422C189.011 437.714 188.974 437.035 188.954 436.372C189.402 436.317 191.45 436.045 192.297 435.531C193.109 435.039 194.007 434.187 194.11 433.187C194.211 432.208 193.517 431.274 192.491 431.273C191.067 431.27 189.598 433.376 189.207 434.586C189.185 434.652 189.042 435.345 188.946 435.851C188.94 435.551 188.93 435.243 188.932 434.956C188.934 433.88 189.002 432.894 189.07 432.021C189.112 431.525 189.16 431.077 189.21 430.659C189.622 430.375 191.268 429.214 191.775 428.383C192.269 427.572 192.673 426.402 192.304 425.468C191.942 424.552 190.896 424.044 189.985 424.515C188.72 425.169 188.387 427.715 188.596 428.969C188.615 429.077 189.092 430.739 189.114 430.725C189.114 430.725 189.135 430.712 189.139 430.707C189.083 431.108 189.028 431.54 188.977 432.012C188.891 432.885 188.801 433.872 188.776 434.953C188.748 436.033 188.747 437.207 188.859 438.444C188.969 439.684 189.148 440.982 189.506 442.296C189.51 442.31 189.516 442.326 189.52 442.34C189.296 441.989 188.637 441.025 188.578 440.958C187.746 439.996 185.574 438.627 184.263 439.184C183.319 439.585 183.042 440.716 183.517 441.579C184.003 442.46 185.161 442.895 186.101 443.032Z" fill="#09BA9A"/>
<path d="M210.516 436.343C210.537 436.356 210.97 434.682 210.985 434.574C211.16 433.315 210.759 430.779 209.477 430.16C208.554 429.714 207.521 430.25 207.185 431.175C206.842 432.12 207.276 433.279 207.794 434.075C208.398 435.011 210.514 436.342 210.516 436.343Z" fill="#09BA9A"/>
<path d="M230.605 59.9062C224.381 63.5443 222.033 70.5903 220.907 73.9683C219.35 78.6385 213.901 70.8544 203.004 74.7465C192.107 78.6385 190.55 87.2007 188.215 89.5353C185.881 91.8699 170.312 98.0975 170.312 98.0975H326.521" stroke="#263238" stroke-miterlimit="10" stroke-linecap="round" stroke-linejoin="round"/>
<path d="M334.304 98.0993H353.229C353.229 98.0993 356.343 80.9748 349.337 72.4126C342.331 63.8504 326.764 76.3046 322.094 63.8504C322.094 63.8504 308.084 43.6132 290.959 42.0558C273.835 40.4994 266.83 53.7318 261.381 60.7366C255.932 67.7424 252.818 57.6228 239.586 57.6228" stroke="#263238" stroke-miterlimit="10" stroke-linecap="round" stroke-linejoin="round"/>
<path d="M259.542 84.1992C256.368 87.1547 255.93 91.095 255.93 91.095" stroke="#263238" stroke-miterlimit="10" stroke-linecap="round" stroke-linejoin="round"/>
<path d="M318.983 70.8576C318.983 70.8576 308.086 59.9608 295.632 60.739C283.178 61.5172 287.848 76.306 282.4 80.9762C276.951 85.6464 270.725 79.4198 263.719 81.7544" stroke="#263238" stroke-miterlimit="10" stroke-linecap="round" stroke-linejoin="round"/>
<path d="M74.469 108.523C70.4033 110.9 68.8695 115.504 68.1335 117.711C67.1168 120.762 63.5568 115.676 56.4369 118.22C49.317 120.762 48.3003 126.356 46.7747 127.882C45.2492 129.407 35.0781 133.476 35.0781 133.476H137.134" stroke="#263238" stroke-miterlimit="10" stroke-linecap="round" stroke-linejoin="round"/>
<path d="M142.216 133.474H154.581C154.581 133.474 156.616 122.286 152.039 116.692C147.462 111.098 137.291 119.234 134.24 111.099C134.24 111.099 125.087 97.8764 113.899 96.8597C102.711 95.843 98.1347 104.487 94.5748 109.064C91.0148 113.641 88.9814 107.03 80.3359 107.03" stroke="#263238" stroke-miterlimit="10" stroke-linecap="round" stroke-linejoin="round"/>
<path d="M93.3759 124.395C91.3024 126.325 91.0156 128.9 91.0156 128.9" stroke="#263238" stroke-miterlimit="10" stroke-linecap="round" stroke-linejoin="round"/>
<path d="M132.207 115.676C132.207 115.676 125.087 108.556 116.951 109.065C108.815 109.574 111.866 119.236 108.306 122.287C104.746 125.338 100.678 121.271 96.1016 122.796" stroke="#263238" stroke-miterlimit="10" stroke-linecap="round" stroke-linejoin="round"/>
<path d="M282.273 149.492C279.438 151.149 278.367 154.36 277.855 155.899C277.145 158.027 274.663 154.48 269.698 156.253C264.734 158.027 264.025 161.927 262.961 162.991C261.897 164.055 254.805 166.892 254.805 166.892H325.973" stroke="#263238" stroke-miterlimit="10" stroke-linecap="round" stroke-linejoin="round"/>
<path d="M329.521 166.892H338.142C338.142 166.892 339.561 159.09 336.369 155.189C333.177 151.288 326.085 156.962 323.957 151.288C323.957 151.288 317.574 142.068 309.773 141.358C301.971 140.649 298.779 146.677 296.297 149.869C293.814 153.061 292.395 148.45 286.367 148.45" stroke="#263238" stroke-miterlimit="10" stroke-linecap="round" stroke-linejoin="round"/>
<path d="M295.458 160.559C294.012 161.905 293.812 163.7 293.812 163.7" stroke="#263238" stroke-miterlimit="10" stroke-linecap="round" stroke-linejoin="round"/>
<path d="M322.537 154.48C322.537 154.48 317.573 149.516 311.898 149.87C306.224 150.224 308.352 156.962 305.87 159.09C303.388 161.218 300.551 158.38 297.359 159.444" stroke="#263238" stroke-miterlimit="10" stroke-linecap="round" stroke-linejoin="round"/>
<path d="M106.497 373.062V330.188H54.3594V304.766L99.8186 198.551H134.505V306.49H152.387V330.188H134.505V373.062H106.497ZM79.3511 306.49H106.497V230.653L79.3511 306.49Z" fill="#0E183C" stroke="#0E183C" stroke-miterlimit="10" stroke-linecap="round" stroke-linejoin="round"/>
<path d="M213.575 375.649C203.376 375.649 194.94 373.494 188.261 369.186C181.582 364.876 176.553 358.918 173.18 351.304C169.803 343.692 168.117 334.93 168.117 325.02V247.674C168.117 237.477 169.733 228.536 172.964 220.851C176.196 213.169 181.151 207.171 187.83 202.861C194.509 198.552 203.09 196.398 213.575 196.398C224.058 196.398 232.643 198.552 239.321 202.861C245.999 207.171 250.955 213.169 254.186 220.851C257.419 228.536 259.035 237.477 259.035 247.674V325.019C259.035 334.929 257.344 343.692 253.972 351.303C250.595 358.918 245.57 364.875 238.89 369.185C232.212 373.494 223.773 375.649 213.575 375.649ZM213.575 350.011C218.026 350.011 221.332 348.647 223.486 345.918C225.64 343.191 227.074 339.885 227.795 336.007C228.512 332.129 228.872 328.325 228.872 324.588V248.105C228.872 244.085 228.549 240.1 227.903 236.148C227.256 232.2 225.856 228.86 223.701 226.129C221.546 223.403 218.171 222.036 213.575 222.036C208.977 222.036 205.604 223.403 203.45 226.129C201.296 228.86 199.895 232.2 199.248 236.148C198.601 240.1 198.279 244.085 198.279 248.105V324.588C198.279 328.325 198.672 332.129 199.464 336.007C200.252 339.885 201.727 343.191 203.88 345.918C206.035 348.646 209.267 350.011 213.575 350.011Z" fill="#0E183C" stroke="#0E183C" stroke-miterlimit="10" stroke-linecap="round" stroke-linejoin="round"/>
<path d="M330.13 373.062V330.188H277.992V304.766L323.451 198.551H358.137V306.49H376.019V330.188H358.137V373.062H330.13ZM302.983 306.49H330.13V230.653L302.983 306.49Z" fill="#0E183C" stroke="#0E183C" stroke-miterlimit="10" stroke-linecap="round" stroke-linejoin="round"/>
<path d="M119.49 373.062V330.188H67.3516V304.766L112.811 198.551H147.498V306.49H165.38V330.188H147.498V373.062H119.49ZM92.3433 306.49H119.49V230.653L92.3433 306.49Z" fill="white" stroke="#0E183C" stroke-miterlimit="10" stroke-linecap="round" stroke-linejoin="round"/>
<path d="M226.568 375.649C216.368 375.649 207.932 373.494 201.253 369.186C194.574 364.876 189.545 358.918 186.172 351.304C182.795 343.692 181.109 334.93 181.109 325.02V247.674C181.109 237.477 182.725 228.536 185.957 220.851C189.189 213.169 194.144 207.171 200.823 202.861C207.502 198.552 216.083 196.398 226.569 196.398C237.052 196.398 245.636 198.552 252.315 202.861C258.994 207.171 263.95 213.169 267.181 220.851C270.413 228.536 272.029 237.477 272.029 247.674V325.019C272.029 334.929 270.339 343.692 266.966 351.303C263.59 358.918 258.564 364.875 251.884 369.185C245.204 373.494 236.764 375.649 226.568 375.649ZM226.568 350.011C231.018 350.011 234.324 348.647 236.478 345.918C238.633 343.191 240.066 339.885 240.787 336.007C241.504 332.129 241.864 328.325 241.864 324.588V248.105C241.864 244.085 241.541 240.1 240.895 236.148C240.248 232.2 238.848 228.86 236.693 226.129C234.539 223.403 231.163 222.036 226.568 222.036C221.969 222.036 218.596 223.403 216.442 226.129C214.287 228.86 212.887 232.2 212.24 236.148C211.594 240.1 211.271 244.085 211.271 248.105V324.588C211.271 328.325 211.665 332.129 212.456 336.007C213.244 339.885 214.719 343.191 216.872 345.918C219.027 348.646 222.259 350.011 226.568 350.011Z" fill="white" stroke="#0E183C" stroke-miterlimit="10" stroke-linecap="round" stroke-linejoin="round"/>
<path d="M343.122 373.062V330.188H290.984V304.766L336.444 198.551H371.129V306.49H389.011V330.188H371.129V373.062H343.122ZM315.975 306.49H343.122V230.653L315.975 306.49Z" fill="white" stroke="#0E183C" stroke-miterlimit="10" stroke-linecap="round" stroke-linejoin="round"/>
<path d="M111.56 190.12C109.139 190.12 107.212 189.669 105.776 188.769C104.341 187.868 103.313 186.573 102.694 184.885C102.075 183.196 101.766 181.198 101.766 178.89V166.097C101.766 163.789 102.075 161.812 102.694 160.166C103.313 158.519 104.341 157.26 105.776 156.387C107.212 155.515 109.138 155.078 111.56 155.078C114.037 155.078 115.986 155.515 117.408 156.387C118.828 157.26 119.856 158.519 120.49 160.166C121.123 161.813 121.439 163.79 121.439 166.097V178.933C121.439 181.213 121.123 183.191 120.49 184.864C119.856 186.54 118.828 187.834 117.408 188.749C115.986 189.662 114.037 190.12 111.56 190.12ZM111.56 185.517C112.602 185.517 113.369 185.292 113.862 184.842C114.355 184.392 114.686 183.773 114.854 182.984C115.023 182.197 115.107 181.337 115.107 180.409V164.66C115.107 163.704 115.023 162.845 114.854 162.085C114.686 161.325 114.355 160.728 113.862 160.291C113.37 159.855 112.602 159.636 111.56 159.636C110.575 159.636 109.829 159.854 109.322 160.291C108.816 160.728 108.478 161.325 108.309 162.085C108.139 162.845 108.056 163.704 108.056 164.66V180.409C108.056 181.338 108.133 182.197 108.288 182.984C108.442 183.773 108.774 184.392 109.28 184.842C109.787 185.292 110.547 185.517 111.56 185.517Z" fill="#0E183C"/>
<path d="M135.326 190.12C132.905 190.12 130.978 189.669 129.541 188.769C128.106 187.868 127.078 186.573 126.46 184.885C125.841 183.196 125.531 181.198 125.531 178.89V166.097C125.531 163.789 125.841 161.812 126.46 160.166C127.078 158.519 128.106 157.26 129.541 156.387C130.977 155.515 132.904 155.078 135.326 155.078C137.802 155.078 139.752 155.515 141.174 156.387C142.595 157.26 143.623 158.519 144.256 160.166C144.89 161.813 145.206 163.79 145.206 166.097V178.933C145.206 181.213 144.89 183.191 144.256 184.864C143.623 186.54 142.595 187.834 141.174 188.749C139.752 189.662 137.802 190.12 135.326 190.12ZM135.326 185.517C136.367 185.517 137.134 185.292 137.628 184.842C138.12 184.392 138.451 183.773 138.62 182.984C138.788 182.197 138.873 181.337 138.873 180.409V164.66C138.873 163.704 138.788 162.845 138.62 162.085C138.451 161.325 138.12 160.728 137.628 160.291C137.134 159.855 136.367 159.636 135.326 159.636C134.34 159.636 133.595 159.854 133.088 160.291C132.581 160.728 132.244 161.325 132.074 162.085C131.906 162.845 131.821 163.704 131.821 164.66V180.409C131.821 181.338 131.898 182.197 132.053 182.984C132.207 183.773 132.538 184.392 133.045 184.842C133.553 185.292 134.312 185.517 135.326 185.517Z" fill="#0E183C"/>
<path d="M149.812 189.656V155.457H159.861C161.916 155.457 163.584 155.837 164.864 156.597C166.145 157.357 167.088 158.462 167.694 159.911C168.299 161.362 168.601 163.114 168.601 165.168C168.601 167.391 168.221 169.186 167.461 170.55C166.702 171.916 165.639 172.907 164.273 173.526C162.908 174.146 161.297 174.455 159.44 174.455H156.062V189.654H149.812V189.656ZM156.061 170.066H158.425C159.551 170.066 160.431 169.905 161.064 169.581C161.697 169.258 162.133 168.737 162.373 168.018C162.611 167.301 162.731 166.336 162.731 165.126C162.731 163.889 162.64 162.882 162.457 162.108C162.274 161.334 161.88 160.765 161.275 160.399C160.669 160.033 159.719 159.85 158.425 159.85H156.061V170.066Z" fill="#0E183C"/>
<path d="M180.504 190.12C178.45 190.12 176.732 189.719 175.353 188.916C173.974 188.114 172.932 186.939 172.229 185.391C171.525 183.843 171.131 181.943 171.047 179.692L176.409 178.636C176.465 179.959 176.627 181.127 176.894 182.14C177.161 183.154 177.57 183.935 178.119 184.483C178.667 185.032 179.391 185.306 180.293 185.306C181.306 185.306 182.024 185.004 182.446 184.399C182.869 183.793 183.08 183.026 183.08 182.098C183.08 180.606 182.742 179.382 182.066 178.425C181.391 177.468 180.49 176.511 179.364 175.554L175.058 171.754C173.847 170.714 172.884 169.552 172.165 168.271C171.448 166.991 171.089 165.407 171.089 163.522C171.089 160.82 171.876 158.738 173.453 157.274C175.029 155.811 177.183 155.078 179.913 155.078C181.518 155.078 182.854 155.325 183.925 155.817C184.994 156.311 185.846 156.993 186.479 157.865C187.112 158.738 187.583 159.73 187.894 160.841C188.203 161.953 188.401 163.128 188.485 164.366L183.165 165.295C183.108 164.226 182.989 163.269 182.806 162.424C182.623 161.579 182.299 160.919 181.835 160.439C181.37 159.961 180.687 159.722 179.787 159.722C178.859 159.722 178.147 160.025 177.655 160.629C177.162 161.235 176.916 161.988 176.916 162.888C176.916 164.042 177.154 164.992 177.633 165.737C178.111 166.484 178.801 167.251 179.702 168.039L183.966 171.796C185.373 172.979 186.577 174.365 187.576 175.956C188.575 177.546 189.075 179.467 189.075 181.719C189.075 183.351 188.716 184.801 187.999 186.067C187.281 187.334 186.282 188.326 185.001 189.044C183.72 189.761 182.221 190.12 180.504 190.12Z" fill="#0E183C"/>
<path d="M191.859 189.656V184.084H197.432V189.656H191.859ZM193.633 181.635L191.902 155.5H197.643L195.617 181.635H193.633Z" fill="#0E183C"/>
<path d="M345.609 394.24V401.59H349.439V397.278C349.439 395.388 350.971 393.855 352.862 393.855H365.428C367.319 393.855 368.851 395.388 368.851 397.278V401.59H372.681V394.24C372.681 392.349 371.148 390.816 369.257 390.816H349.033C347.142 390.816 345.609 392.349 345.609 394.24Z" fill="#263238" stroke="#263238" stroke-miterlimit="10" stroke-linecap="round" stroke-linejoin="round"/>
<path d="M385.973 399.586H313.459C310.789 399.586 308.625 401.75 308.625 404.42V462.703C308.625 464.422 310.018 465.815 311.737 465.815H387.696C389.414 465.815 390.807 464.422 390.807 462.703V404.42C390.806 401.751 388.642 399.586 385.973 399.586Z" fill="#263238" stroke="#263238" stroke-miterlimit="10" stroke-linecap="round" stroke-linejoin="round"/>
<path d="M396.02 399.586H323.506C320.836 399.586 318.672 401.75 318.672 404.42V462.703C318.672 464.422 320.065 465.815 321.784 465.815H397.743C399.461 465.815 400.854 464.422 400.854 462.703V404.42C400.853 401.751 398.689 399.586 396.02 399.586Z" fill="#8A8A8A" stroke="#263238" stroke-miterlimit="10" stroke-linecap="round" stroke-linejoin="round"/>
<path d="M421.475 269.503C421.475 269.503 400.807 331.591 399.021 342.831C397.235 354.07 398.383 368.025 399.457 375.085C400.532 382.144 411.536 443.118 411.536 443.118C411.536 443.118 408.812 442.199 408.613 444.17C408.413 446.14 409.1 454.479 409.1 454.479C409.1 454.479 406.245 458.478 398.73 462.83C391.214 467.184 387.559 468.497 389.804 469.919C392.049 471.341 401.644 471.853 405.562 471.27C409.479 470.687 420.017 469.457 421.73 469.171C423.444 468.885 428.63 469.992 430.28 467.005C431.93 464.017 430.735 454.954 431.152 451.749C431.568 448.545 429.237 443.44 429.22 442.703C429.203 441.966 427.144 373.051 427.144 373.051L428.446 355.936C428.446 355.936 428.063 372.235 429.938 374.053C431.813 375.87 451.363 443.904 451.363 443.904L449.468 446.897L451.833 453.476L449.966 457.697C449.966 457.697 441.069 466.015 437.432 468.066C433.794 470.117 430.122 470.694 432.126 472.367C434.131 474.04 453.767 473.088 453.767 473.088L474.31 468.921C474.31 468.921 477.422 465.408 476.862 462.472C476.302 459.536 473.598 449.034 473.598 449.034C473.598 449.034 474.258 435.258 473.509 434.784C472.761 434.31 468.956 429.239 468.665 427.28C468.373 425.32 466.236 386.839 463.979 380.369C461.72 373.9 458.916 363.778 458.916 363.778C458.916 363.778 460.508 362.168 460.612 360.434C460.716 358.7 460.209 355.538 460.209 355.538C460.209 355.538 481.659 299.717 482.642 296.523C483.625 293.329 488.046 276.134 488.046 269.256C488.046 262.377 487.555 257.219 487.555 257.219C487.555 257.219 470.85 264.834 453.9 265.571C436.95 266.308 421.965 265.326 421.965 265.326L421.475 269.503Z" fill="#121414" stroke="#121414" stroke-miterlimit="10" stroke-linecap="round" stroke-linejoin="round"/>
<path d="M472.82 271.715C472.82 271.715 472.82 288.42 481.173 291.613" stroke="white" stroke-miterlimit="10" stroke-linecap="round" stroke-linejoin="round"/>
<path d="M484.853 266.801C484.853 266.801 485.344 278.101 483.133 288.173" stroke="white" stroke-miterlimit="10" stroke-linecap="round" stroke-linejoin="round"/>
<path d="M468.835 318.004C466.547 322.876 464.794 326.658 464.711 326.988" stroke="white" stroke-miterlimit="10" stroke-linecap="round" stroke-linejoin="round"/>
<path d="M479.938 294.559C479.938 294.559 474.58 305.803 470.219 315.054" stroke="white" stroke-miterlimit="10" stroke-linecap="round" stroke-linejoin="round"/>
<path d="M430.583 340.573L439.651 301.685L430.07 293.332" stroke="white" stroke-miterlimit="10" stroke-linecap="round" stroke-linejoin="round"/>
<path d="M428.617 349.018L429.559 344.98" stroke="white" stroke-miterlimit="10" stroke-linecap="round" stroke-linejoin="round"/>
<path d="M381.459 180.514L356.858 191.227C356.858 191.227 371.539 160.675 372.134 158.889C372.729 157.104 364 142.026 364.198 141.431C364.396 140.835 371.936 131.71 372.134 129.726C372.332 127.742 376.499 120.798 373.324 120.402C370.15 120.005 353.287 135.678 352.89 139.646C352.493 143.614 360.429 157.105 361.223 158.295C362.016 159.485 320.354 204.123 319.56 211.266C318.766 218.408 322.139 222.971 328.091 223.764C334.044 224.558 380.864 208.488 388.006 206.504C395.149 204.52 397.529 207.695 397.529 207.695C397.529 207.695 419.947 234.874 421.535 238.247C423.122 241.62 422.328 254.118 420.543 257.888C418.757 261.657 416.773 268.204 417.765 269.196C418.757 270.188 419.486 271.41 422.461 272.204C425.437 272.997 446.135 275.545 457.84 273.759C469.545 271.973 483.434 265.823 486.607 263.443C489.781 261.062 490.178 258.284 490.178 254.713C490.178 251.142 487.797 247.967 486.21 244.396C484.623 240.825 474.109 208.09 469.744 197.575C465.379 187.061 466.768 179.124 450.301 169.8C433.835 160.476 414.521 162.432 414.521 162.432L381.459 180.514Z" fill="#132152" stroke="#121414" stroke-miterlimit="10" stroke-linecap="round" stroke-linejoin="round"/>
<path d="M355.869 206.191L355.664 209.283" stroke="#121414" stroke-miterlimit="10" stroke-linecap="round" stroke-linejoin="round"/>
<path d="M350.508 211.066L356.856 191.227L356.023 203.856" stroke="#121414" stroke-miterlimit="10" stroke-linecap="round" stroke-linejoin="round"/>
<path d="M349.914 173.57C349.914 173.57 350.906 181.11 360.627 181.506" stroke="#121414" stroke-miterlimit="10" stroke-linecap="round" stroke-linejoin="round"/>
<path d="M395.342 205.908C395.342 205.908 388.199 201.146 380.859 198.766L395.342 205.908Z" fill="white"/>
<path d="M395.342 205.908C395.342 205.908 388.199 201.146 380.859 198.766" stroke="#121414" stroke-miterlimit="10" stroke-linecap="round" stroke-linejoin="round"/>
<path d="M378.695 201.323C377.903 201.19 377.101 201.063 376.297 200.949" stroke="#121414" stroke-miterlimit="10" stroke-linecap="round" stroke-linejoin="round"/>
<path d="M392.766 204.518C392.766 204.518 387.709 203.038 381.484 201.828" stroke="#121414" stroke-miterlimit="10" stroke-linecap="round" stroke-linejoin="round"/>
<path d="M429.141 245.043C429.839 245.618 430.335 245.984 430.465 245.984" stroke="#121414" stroke-miterlimit="10" stroke-linecap="round" stroke-linejoin="round"/>
<path d="M421.531 238.246C421.531 238.246 425.031 241.496 427.655 243.782" stroke="#121414" stroke-miterlimit="10" stroke-linecap="round" stroke-linejoin="round"/>
<path d="M464.383 272.568L482.04 261.457" stroke="#121414" stroke-miterlimit="10" stroke-linecap="round" stroke-linejoin="round"/>
<path d="M474.446 229.258C472.455 237.322 468.592 251.061 463.992 257.691" stroke="#121414" stroke-miterlimit="10" stroke-linecap="round" stroke-linejoin="round"/>
<path d="M475.894 222.969C475.894 222.969 475.643 224.186 475.18 226.186" stroke="#121414" stroke-miterlimit="10" stroke-linecap="round" stroke-linejoin="round"/>
<path d="M475.894 233.484C475.894 233.484 472.124 249.951 469.148 254.514" stroke="#121414" stroke-miterlimit="10" stroke-linecap="round" stroke-linejoin="round"/>
<path d="M367.194 169.578C369.791 164.094 371.916 159.546 372.134 158.889C372.729 157.104 363.999 142.026 364.197 141.431C364.396 140.835 371.935 131.71 372.134 129.726C372.332 127.742 376.498 120.798 373.324 120.402C370.149 120.005 353.286 135.678 352.889 139.646C352.493 143.614 360.429 157.105 361.222 158.295C361.39 158.547 359.658 160.743 356.82 164.11C357.925 166.803 360.623 170.217 367.194 169.578Z" fill="white" stroke="#121414" stroke-miterlimit="10" stroke-linecap="round" stroke-linejoin="round"/>
<path d="M363.74 130.801C363.74 130.801 358.767 140.435 358.95 141.167" stroke="#121414" stroke-miterlimit="10" stroke-linecap="round" stroke-linejoin="round"/>
<path d="M360.05 130.922C360.05 130.922 354.378 138.973 354.744 140.254" stroke="#121414" stroke-miterlimit="10" stroke-linecap="round" stroke-linejoin="round"/>
<path d="M397.133 184.481C397.133 184.481 395.545 194.202 395.744 198.567C395.942 202.931 398.125 210.668 398.125 210.668L407.846 199.559L424.114 209.676C424.114 209.676 423.519 189.043 423.519 188.448C423.519 187.853 419.75 165.633 418.559 163.45C417.369 161.268 414.194 160.077 412.409 160.474C410.623 160.873 397.133 184.481 397.133 184.481Z" fill="#0D1C4F" stroke="#121414" stroke-miterlimit="10" stroke-linecap="round" stroke-linejoin="round"/>
<path d="M369.726 130.289C369.726 130.289 369.213 144.822 369.555 150.636C369.898 156.449 369.042 161.066 370.581 165.853C372.12 170.641 373.83 179.874 375.369 182.951C376.908 186.029 380.156 188.935 384.943 188.935C389.731 188.935 395.031 185.003 397.596 182.438C400.161 179.873 404.606 176.283 407 171.667C409.394 167.05 407.342 155.423 407.684 152.175C408.026 148.926 408.71 143.284 408.71 143.284C408.71 143.284 412.129 134.906 409.393 130.973C406.658 127.04 394.518 122.595 385.285 123.451C376.052 124.305 369.726 130.289 369.726 130.289Z" fill="white" stroke="#121414" stroke-miterlimit="10" stroke-linecap="round" stroke-linejoin="round"/>
<path d="M377.765 146.703L379.133 151.833C379.133 151.833 375.029 163.802 376.055 164.485C377.081 165.169 385.459 164.315 385.459 164.315" stroke="#121414" stroke-miterlimit="10" stroke-linecap="round" stroke-linejoin="round"/>
<path d="M384.433 141.403C384.433 141.403 384.262 143.284 384.946 143.625C385.63 143.967 392.298 146.531 393.324 146.19C394.35 145.848 392.982 144.48 392.128 144.138C391.272 143.797 384.091 139.864 384.433 141.403Z" fill="#121414" stroke="#121414" stroke-miterlimit="10" stroke-linecap="round" stroke-linejoin="round"/>
<path d="M377.762 144.138C377.762 144.138 372.291 147.215 371.265 147.386C370.239 147.557 371.949 145.334 371.949 145.334C371.949 145.334 376.053 140.717 377.079 141.401C378.105 142.087 377.762 144.138 377.762 144.138Z" fill="#121414" stroke="#121414" stroke-miterlimit="10" stroke-linecap="round" stroke-linejoin="round"/>
<path d="M386.484 150.977C386.484 150.977 389.392 154.054 393.324 151.66" stroke="#121414" stroke-miterlimit="10" stroke-linecap="round" stroke-linejoin="round"/>
<path d="M372.289 152.346C372.289 152.346 375.025 154.056 377.76 151.32" stroke="#121414" stroke-miterlimit="10" stroke-linecap="round" stroke-linejoin="round"/>
<path d="M407.68 152.175C407.991 149.23 408.58 144.33 408.688 143.439L405.287 141.574C405.287 141.574 406.313 154.227 404.945 161.237C403.578 168.247 401.183 170.469 398.448 171.495C395.712 172.521 394.344 171.153 394.344 171.153C394.344 171.153 387.847 164.997 382.034 164.827C376.959 164.677 373.058 170.258 372.148 171.68C373.229 176.076 374.335 180.891 375.365 182.95C376.904 186.028 380.152 188.934 384.94 188.934C389.727 188.934 395.028 185.002 397.592 182.437C400.157 179.872 404.602 176.282 406.997 171.666C409.39 167.05 407.338 155.423 407.68 152.175Z" fill="#121414" stroke="#121414" stroke-miterlimit="10" stroke-linecap="round" stroke-linejoin="round"/>
<path d="M390.246 176.282C390.246 176.282 386.655 171.152 383.236 170.298C379.816 169.443 376.226 176.111 377.423 177.308C378.619 178.505 380.329 174.06 383.578 175.428C386.826 176.795 388.707 179.019 390.246 176.282Z" fill="white" stroke="#121414" stroke-miterlimit="10" stroke-linecap="round" stroke-linejoin="round"/>
<path d="M369.212 121.226C369.212 121.226 364.083 119.687 360.834 121.397C357.586 123.106 356.047 126.868 356.047 126.868L362.716 127.381L365.793 128.92C365.793 128.92 364.425 128.92 363.741 130.801C363.058 132.682 362.545 134.905 362.545 134.905C362.545 134.905 364.939 133.536 368.701 133.025C372.462 132.512 379.814 130.289 379.814 130.289L380.67 135.932C380.67 135.932 384.944 133.196 388.364 132.17C391.783 131.144 393.835 128.922 393.835 128.922C393.835 128.922 402.726 132.342 402.555 133.88C402.384 135.419 399.306 139.18 400.332 140.377C401.358 141.573 404.094 144.138 404.094 144.138L414.352 149.952C414.352 149.952 418.113 144.138 419.995 134.906C421.876 125.673 413.326 115.756 406.145 113.021C398.965 110.285 393.663 111.311 389.218 111.482C384.773 111.652 378.618 110.285 378.618 110.285L382.721 114.56C382.721 114.56 378.789 116.098 377.079 116.441C375.369 116.783 372.462 117.637 371.778 117.296C371.095 116.954 368.701 115.416 368.701 115.416C368.701 115.416 367.503 120.543 369.212 121.226Z" fill="#121414" stroke="#121414" stroke-miterlimit="10" stroke-linecap="round" stroke-linejoin="round"/>
<path d="M410.422 159.355C410.422 159.355 412.987 157.987 414.354 155.936C415.722 153.884 419.654 146.019 415.038 143.796C411.54 142.112 409.223 145.136 408.304 146.701C408.096 148.482 407.851 150.606 407.685 152.174C407.343 155.423 409.395 167.049 407.002 171.666C404.609 176.283 400.162 179.874 397.598 182.438C396.614 183.422 395.224 184.607 393.617 185.694L397.94 186.883C397.94 186.883 399.308 191.157 403.07 195.944C406.831 200.732 410.08 203.81 410.08 203.81C410.08 203.81 411.105 197.654 413.841 183.975C416.577 170.297 414.525 162.432 414.525 162.432L410.422 159.355Z" fill="white" stroke="#121414" stroke-miterlimit="10" stroke-linecap="round" stroke-linejoin="round"/>
<path d="M397.938 186.883L403.922 188.592L401.015 192.867C401.015 192.867 398.622 188.935 397.938 186.883Z" fill="#121414" stroke="#121414" stroke-miterlimit="10" stroke-linecap="round" stroke-linejoin="round"/>
<path d="M434.031 182.302L438.991 306.297L450.101 307.091C450.101 307.091 459.623 267.016 462.401 253.327C465.179 239.638 466.171 230.908 465.972 219.997C465.774 209.086 463.195 186.469 463.195 186.469C463.195 186.469 457.441 176.748 452.482 173.375" fill="#132152"/>
<path d="M434.031 182.302L438.991 306.297L450.101 307.091C450.101 307.091 459.623 267.016 462.401 253.327C465.179 239.638 466.171 230.908 465.972 219.997C465.774 209.086 463.195 186.469 463.195 186.469C463.195 186.469 457.441 176.748 452.482 173.375" stroke="#121414" stroke-miterlimit="10" stroke-linecap="round" stroke-linejoin="round"/>
<path d="M456.594 205.487C457.621 202.246 458.233 200.156 458.233 200.156" stroke="#121414" stroke-miterlimit="10" stroke-linecap="round" stroke-linejoin="round"/>
<path d="M437.008 254.119C437.008 254.119 441.77 243.009 447.324 230.708C450.349 224.008 453.316 215.542 455.39 209.223" stroke="#121414" stroke-miterlimit="10" stroke-linecap="round" stroke-linejoin="round"/>
<path d="M450.2 237.324C449.888 238.177 449.586 238.897 449.305 239.44" stroke="#121414" stroke-miterlimit="10" stroke-linecap="round" stroke-linejoin="round"/>
<path d="M456.049 214.641C456.049 214.641 453.602 226.296 451.297 233.973" stroke="#121414" stroke-miterlimit="10" stroke-linecap="round" stroke-linejoin="round"/>
<path d="M438.992 295.387L452.284 295.982" stroke="#121414" stroke-miterlimit="10" stroke-linecap="round" stroke-linejoin="round"/>
<path d="M438.997 306.297C438.997 306.297 437.445 325.438 437.445 327.092C437.445 328.746 438.769 340.824 439.099 341.817C439.43 342.81 447.868 349.098 448.696 349.098C449.523 349.098 454.155 349.594 454.983 348.27C455.811 346.946 456.142 346.12 454.983 345.789C453.824 345.458 450.681 345.623 450.681 345.623L448.861 344.795C448.861 344.795 455.645 344.133 456.142 343.968C456.638 343.802 459.12 342.148 459.616 340.99C460.113 339.831 459.285 338.508 459.285 338.508C459.285 338.508 461.767 336.192 461.932 335.365C462.098 334.537 462.263 332.221 461.105 332.552C459.946 332.883 458.292 334.703 458.292 334.703H454.155C454.155 334.703 458.458 331.89 458.953 331.062C459.45 330.235 460.112 326.76 459.946 325.768C459.781 324.775 457.63 325.934 457.134 326.927C456.637 327.92 455.81 330.567 455.81 330.567L450.846 331.229L449.192 329.078C449.192 329.078 452.501 318.82 452.501 316.669C452.501 314.519 450.106 307.09 450.106 307.09L438.997 306.297Z" fill="white" stroke="#121414" stroke-miterlimit="10" stroke-linecap="round" stroke-linejoin="round"/>
<path d="M445.055 331.395C445.055 331.395 448.695 334.538 449.688 334.869C450.681 335.2 454.155 334.704 454.155 334.704" stroke="#121414" stroke-miterlimit="10" stroke-linecap="round" stroke-linejoin="round"/>
<path d="M442.906 335.035C442.906 335.035 448.531 339.998 450.021 339.998C451.51 339.998 459.286 338.51 459.286 338.51" stroke="#121414" stroke-miterlimit="10" stroke-linecap="round" stroke-linejoin="round"/>
<path d="M441.75 339.336C441.75 339.336 445.059 343.307 446.052 343.637C447.045 343.967 448.865 344.796 448.865 344.796" stroke="#121414" stroke-miterlimit="10" stroke-linecap="round" stroke-linejoin="round"/>
</svg>
